<?xml version="1.0" encoding="utf-8"?>
<!-- Generator: Adobe Illustrator 14.0.0, SVG Export Plug-In . SVG Version: 6.00 Build 43363)  -->
<!DOCTYPE svg PUBLIC "-//W3C//DTD SVG 1.0//EN" "http://www.w3.org/TR/2001/REC-SVG-20010904/DTD/svg10.dtd">
<svg version="1.0" id="Layer_1" xmlns="http://www.w3.org/2000/svg" xmlns:xlink="http://www.w3.org/1999/xlink" x="0px" y="0px"
	 width="161px" height="161px" viewBox="0 0 161 161" enable-background="new 0 0 161 161" xml:space="preserve">
<circle opacity="0.91" fill="#E74C3C" cx="80.5" cy="80.5" r="78.5"/>
<path opacity="0.42" fill="#3D3D3D" d="M193.146,144.925c-0.15,7.807,0.121,15.423,0.797,23.385
	c-0.55,0.174-0.949,0.688-0.949,1.295c0,0.751,0.608,1.359,1.359,1.359c0.28,0,0.541-0.085,0.758-0.231
	c5.889,7.528,11.709,15.667,17.313,24.686c0.002,0.005,0.006,0.007,0.01,0.012v0.001c0.002,0,0-0.001,0.002,0
	c0.001,0.001,0.002,0.001,0.004,0.004c7.898,6.05,15.125,12.438,21.789,19.088c-0.203,0.237-0.325,0.544-0.325,0.88
	c0,0.75,0.608,1.358,1.358,1.358c0.516,0,0.965-0.287,1.195-0.71c6.15,2.744,11.932,5.362,17.537,7.812
	c-0.045,0.136-0.071,0.28-0.071,0.431c0,0.75,0.608,1.358,1.358,1.358s1.358-0.608,1.358-1.358c0-0.03-0.002-0.06-0.004-0.09
	c4.73-0.788,9.481-1.728,14.376-2.805c5.52-2.863,11.293-5.816,17.475-8.801c0.002,0,0.002-0.003,0.004-0.002
	c0.004-0.003,0.008-0.003,0.011-0.007c5.385-5.103,11.125-9.991,17.251-14.639c0.248,0.275,0.607,0.45,1.008,0.45
	c0.75,0,1.357-0.608,1.357-1.359c0-0.42-0.191-0.796-0.491-1.045c4.751-6.568,9.659-12.63,14.663-18.292c0.002,0,0,0,0.002,0
	c0.002-0.001,0-0.002,0.002-0.004c0.002-0.001,0.004-0.003,0.006-0.006c0-0.002,0.002-0.003,0.002-0.003
	c0.002-0.004,0.002-0.008,0.004-0.012c0.002-0.003,0.006-0.005,0.006-0.009c2.514-6.362,4.863-12.35,7.004-18.199
	c0.059,0.007,0.117,0.013,0.176,0.013c0.752,0,1.359-0.608,1.359-1.359c0-0.75-0.607-1.358-1.359-1.358
	c-0.051,0-0.1,0.002-0.148,0.008c-1.148-5.644-2.512-11.361-4.063-17.363c-0.002-0.002-0.004-0.005-0.006-0.008
	c0-0.001,0-0.003-0.002-0.006c-4.197-5.559-8.369-11.458-12.455-17.805c-0.002-0.002-0.004-0.002-0.006-0.004
	c-0.002-0.003-0.002-0.005-0.006-0.008c-2.479-2.262-4.898-4.585-7.26-6.961c0.21-0.239,0.339-0.552,0.339-0.897
	c0-0.75-0.608-1.358-1.358-1.358c-0.367,0-0.697,0.145-0.942,0.381c-6.171-5.396-11.927-11.053-17.296-16.948
	c-0.002-0.004-0.008-0.006-0.012-0.007c-0.002-0.002-0.004-0.005-0.006-0.006c-6.385-2.806-12.355-5.483-18.111-7.986
	c0.044-0.133,0.068-0.276,0.068-0.424c0-0.75-0.607-1.358-1.357-1.358s-1.358,0.607-1.359,1.356
	c-6.538,0.579-13.05,1.462-19.854,2.615c-0.099-0.652-0.66-1.153-1.341-1.153c-0.751,0-1.358,0.608-1.358,1.358
	c0,0.36,0.141,0.685,0.368,0.929c-8.58,7.474-18.019,14.711-28.669,21.488c-0.002,0.002-0.002,0.004-0.004,0.006
	c-0.004,0.004-0.01,0.008-0.013,0.013c-0.001,0-0.003,0.001-0.004,0.003c-6.737,11.126-13.737,20.846-20.725,29.732
	c-0.185-0.094-0.394-0.147-0.614-0.147c-0.75,0-1.359,0.608-1.359,1.358C191.938,144.275,192.467,144.85,193.146,144.925z
	 M193.268,144.932c0.01,0.001,0.02,0.002,0.029,0.002c0.188,0,0.365-0.039,0.527-0.107c1.688,3.989,3.464,7.994,5.305,12.078
	c-0.467,0.215-0.793,0.686-0.793,1.234c0,0.49,0.262,0.918,0.65,1.156c-1.52,3.005-3,5.986-4.432,8.969
	c-0.066-0.009-0.133-0.016-0.201-0.016c-0.102,0-0.199,0.012-0.294,0.033C193.387,160.331,193.117,152.727,193.268,144.932z
	 M244.315,91.552c0.71,0,1.292-0.545,1.353-1.24c7.577-0.063,14.867,0.24,22.332,0.918c-3.314,1.138-6.639,2.338-10.01,3.591
	c-5.135,1.907-10.379,3.934-15.869,6.042c0.049-0.213,0.096-0.427,0.145-0.641c0.634-2.813,1.265-5.707,1.891-8.681
	C244.209,91.548,244.262,91.552,244.315,91.552z M243.695,100.371c8.582-3.292,16.586-6.377,24.543-9.099
	c-0.026,3.303-0.061,6.503-0.101,9.615c-0.058,4.525-0.13,8.862-0.216,13.052c-4.816,2.418-9.664,4.89-14.628,7.374
	c-3.448,1.726-6.951,3.457-10.539,5.181c-0.229-5.316-0.407-10.819-0.524-16.612c-0.057-2.89-0.101-5.853-0.127-8.899
	C242.637,100.778,243.168,100.574,243.695,100.371z M304.525,115.082c0.19,0,0.371-0.04,0.535-0.11
	c3.784,7.345,7.637,14.118,11.484,20.485c-0.133,0.081-0.252,0.183-0.35,0.302c-9.268-7.567-17.83-15.818-25.689-24.753
	c0.199-0.2,0.336-0.462,0.379-0.755c3.967,0.955,8.074,1.959,12.364,3.008c-0.052,0.146-0.082,0.301-0.082,0.463
	C303.167,114.474,303.775,115.082,304.525,115.082z M328.133,158.124c0,0.283,0.088,0.546,0.234,0.764
	c-3.15,1.189-6.219,2.417-9.213,3.68c-0.049-3.221-0.162-6.426-0.336-9.652c-0.264-4.905-0.67-9.86-1.211-14.988
	c0.105-0.029,0.209-0.07,0.303-0.124c3.186,5.83,6.326,11.341,9.367,16.67c0.484,0.848,0.965,1.69,1.445,2.531
	C328.367,157.249,328.133,157.659,328.133,158.124z M305.401,197.04c0,0.267,0.077,0.515,0.21,0.724
	c-9.268,5.571-17.63,11.452-25.322,17.498c6.955-8.778,14.539-16.906,22.754-24.387c0.992,1.671,1.972,3.355,2.944,5.049
	C305.633,196.168,305.401,196.577,305.401,197.04z M255.281,222.936c-0.467,0-0.879,0.236-1.123,0.595
	c-2.568-1.744-5.185-3.505-7.87-5.281c-3.202-2.116-6.5-4.249-9.92-6.389c1.159-0.034,2.312-0.076,3.456-0.125
	c9.04-0.39,17.652-1.249,26.541-2.488c0.039,0.305,0.18,0.578,0.388,0.785c-3.694,4.276-7.242,8.671-10.653,13.179
	C255.872,223.039,255.59,222.936,255.281,222.936z M194.672,168.287c1.426-2.972,2.898-5.943,4.412-8.937
	c0.184,0.093,0.391,0.146,0.611,0.146c0.236,0,0.458-0.061,0.651-0.166c4.562,8.348,9.306,17.125,14.034,26.835
	c-5.961-5.599-12.26-10.87-18.89-15.82c0.14-0.213,0.22-0.467,0.22-0.74C195.711,168.966,195.268,168.431,194.672,168.287z
	 M288.188,110.1c0.027,0.726,0.623,1.306,1.355,1.306c0.118,0,0.231-0.017,0.34-0.044c2.08,6.298,4.174,12.22,6.248,17.868
	c0.939,2.558,1.874,5.057,2.802,7.515c-0.267,0.101-0.494,0.281-0.65,0.515c-10.978-7.341-20.924-15.177-30.211-23.256
	c4.653-1.051,9.32-2.02,14.093-2.882C284.15,110.761,286.158,110.421,288.188,110.1z M316.143,135.832
	c-0.158,0.222-0.252,0.493-0.252,0.786c0,0.085,0.008,0.167,0.023,0.249c-3.078,0.177-6.071,0.377-8.991,0.6
	c-2.089,0.158-4.137,0.328-6.155,0.508c-0.021-0.731-0.619-1.317-1.355-1.317c-0.136,0-0.266,0.02-0.389,0.056
	c-1.662-4.399-3.348-8.939-5.037-13.685c-1.34-3.759-2.682-7.647-4.019-11.69c0.177-0.058,0.336-0.15,0.472-0.271
	C298.303,120.007,306.869,128.261,316.143,135.832z M232.836,166.378c0-0.111-0.016-0.219-0.041-0.324
	c10.176-4.498,19.832-9.257,29.515-13.987c1.427-0.697,2.853-1.393,4.282-2.088c-1.737,4.136-3.488,8.254-5.231,12.404
	c-3.854,9.175-7.675,18.507-11.245,28.536c-5.671-8.234-11.648-16.01-17.838-23.445C232.615,167.228,232.836,166.83,232.836,166.378
	z M263.879,156.642c0.941-2.223,1.88-4.445,2.814-6.672c7.252,8.111,14.629,16.076,22.07,23.962
	c-0.197,0.236-0.316,0.54-0.316,0.872c0,0.173,0.033,0.336,0.092,0.489c-13.727,5.198-26.029,10.61-38.332,15.641
	C254.525,178.801,259.211,167.689,263.879,156.642z M288.574,175.375c0.088,0.188,0.217,0.354,0.377,0.483
	c-3.637,4.878-7.199,9.943-10.65,15.25c-3.458,5.318-6.805,10.881-10.011,16.733c-0.176-0.083-0.372-0.132-0.581-0.132
	c-0.322,0-0.619,0.114-0.853,0.302c-1.769-1.916-3.56-3.821-5.372-5.712c-3.657-3.813-7.407-7.571-11.27-11.263
	C262.523,186,274.836,180.581,288.574,175.375z M268.367,207.88c4.164-7.598,8.566-14.705,13.14-21.43
	c2.46-3.617,4.97-7.124,7.516-10.538c0.222,0.156,0.491,0.249,0.782,0.249c0.275,0,0.531-0.082,0.746-0.223
	c3.017,3.591,6.031,7.178,9.034,10.772c1.134,1.356,2.265,2.714,3.394,4.073c-10.105,4.526-19.191,9.227-27.684,13.906
	c-2.192,1.208-4.342,2.413-6.461,3.615C268.714,208.129,268.555,207.983,268.367,207.88z M289.805,173.444
	c-0.383,0-0.729,0.16-0.977,0.416c-7.442-7.883-14.82-15.846-22.07-23.956c7.01-2.743,14.086-5.445,21.456-8.006
	c3.259-1.132,6.578-2.234,9.972-3.302c0.187,0.39,0.551,0.677,0.99,0.753c-2.619,11.407-5.742,22.359-9.091,34.124
	C289.994,173.455,289.901,173.444,289.805,173.444z M298.236,137.335c-0.115,0.2-0.184,0.431-0.184,0.679
	c0,0.175,0.035,0.342,0.095,0.496c-11.066,3.484-21.312,7.354-31.419,11.31c0.431-9.308,0.805-18.757,1.1-29.012
	c0.063-2.206,0.123-4.448,0.178-6.735C277.301,122.153,287.253,129.991,298.236,137.335z M266.639,149.786
	c-2.049-1.934-4.088-3.877-6.119-5.827c-5.977-5.739-11.876-11.542-17.727-17.38c7.416-3.562,14.473-7.155,21.42-10.66
	c1.238-0.625,2.474-1.247,3.707-1.866C267.604,126.966,267.163,138.481,266.639,149.786z M266.602,149.874
	c-1.014,0.492-2.025,0.986-3.037,1.479c-10.109,4.935-20.169,9.916-30.794,14.611c-0.129-0.406-0.444-0.728-0.846-0.868
	c1.396-5.248,2.86-10.453,4.37-15.734c2.092-7.315,4.264-14.777,6.438-22.708C250.58,134.48,258.513,142.241,266.602,149.874z
	 M231.83,165.068c-0.113-0.03-0.23-0.049-0.354-0.049c-0.275,0-0.533,0.083-0.748,0.226c-4.216-7.053-8.473-13.845-12.664-20.563
	c0.391-0.239,0.652-0.667,0.652-1.159c0-0.225-0.057-0.435-0.151-0.621c3.191-1.914,6.309-3.872,9.35-5.871
	c5.095-3.349,9.987-6.808,14.719-10.35C238.891,140.316,235.158,152.57,231.83,165.068z M217.357,144.882
	c0.223,0,0.434-0.054,0.619-0.15c4.195,6.719,8.457,13.512,12.676,20.568c-0.264,0.202-0.45,0.498-0.512,0.838
	c-8.972-2.69-18.525-5.342-29.098-7.841c0.008-0.052,0.01-0.105,0.01-0.159c0-0.326-0.113-0.625-0.305-0.858
	c5.367-4.076,10.586-8.339,15.645-12.802C216.639,144.728,216.98,144.882,217.357,144.882z M204.247,166.292
	c-1.281-2.379-2.552-4.714-3.81-7.018c0.307-0.2,0.525-0.521,0.594-0.895c10.571,2.501,20.125,5.156,29.097,7.846
	c-0.006,0.051-0.009,0.101-0.009,0.152c0,0.444,0.214,0.837,0.543,1.085c-2.77,3.239-5.543,6.465-8.31,9.688
	c-2.612,3.041-5.218,6.08-7.811,9.128C211.094,179.185,207.637,172.588,204.247,166.292z M229.42,169.065
	c0.441-0.514,0.881-1.03,1.321-1.545c0.212,0.138,0.465,0.218,0.735,0.218c0.267,0,0.516-0.079,0.725-0.211
	c6.188,7.43,12.162,15.201,17.832,23.431c-11.018-1.158-22.42-2.711-35.402-4.618C219.531,180.573,224.479,174.839,229.42,169.065z
	 M249.603,191.013c0.146,0.016,0.294,0.031,0.44,0.046c-4.799,6.635-9.436,13.501-13.857,20.666
	c-2.711-3.731-5.521-7.349-8.428-10.858c-4.168-5.032-8.536-9.84-13.096-14.428C227.463,188.321,238.729,189.859,249.603,191.013z
	 M250.137,191.089c5.159,4.933,10.12,9.987,14.922,15.13c0.577,0.618,1.148,1.239,1.723,1.86c-0.264,0.248-0.43,0.599-0.43,0.989
	c0,0.023,0.002,0.045,0.004,0.068c-7.338,1.021-14.489,1.787-21.848,2.241c-2.705,0.167-5.438,0.292-8.22,0.373
	C240.708,204.587,245.342,197.722,250.137,191.089z M256.176,223.273c3.408-4.508,6.955-8.903,10.646-13.178
	c0.238,0.206,0.549,0.331,0.887,0.331c0.517,0,0.964-0.286,1.194-0.708c3.657,1.993,7.3,3.941,10.965,5.822
	c-8.212,3.033-15.821,5.852-23.294,8.337C256.498,223.642,256.359,223.434,256.176,223.273z M268.95,209.621
	c0.076-0.169,0.118-0.355,0.118-0.552c0-0.247-0.066-0.478-0.182-0.677c9.022-5.118,18.631-10.323,29.393-15.355
	c1.491-0.697,3.005-1.392,4.542-2.082c-8.242,7.521-15.849,15.696-22.821,24.525C276.306,213.588,272.637,211.628,268.95,209.621z
	 M291.444,176.85c-0.272-0.323-0.544-0.646-0.814-0.969c0.324-0.249,0.534-0.638,0.534-1.078c0-0.176-0.035-0.345-0.097-0.5
	c4.218-1.995,8.573-3.95,13.104-5.846c4.734-1.982,9.66-3.9,14.813-5.734c-5.205,8.622-10.594,17.753-15.931,27.983
	C299.203,186.076,295.326,181.467,291.444,176.85z M291.031,174.222c-0.166-0.35-0.477-0.617-0.854-0.724
	c1.337-4.696,2.64-9.263,3.888-13.78c1.88-6.803,3.636-13.497,5.211-20.352c0.045,0.004,0.09,0.006,0.136,0.006
	c0.287,0,0.555-0.091,0.773-0.244c3.687,5.001,7.443,9.796,11.236,14.435c2.52,3.081,5.055,6.096,7.594,9.058
	C308.904,166.215,299.678,170.136,291.031,174.222z M309.129,150.579c-2.989-3.722-5.951-7.549-8.869-11.506
	c0.299-0.239,0.492-0.602,0.508-1.01c4.713-0.419,9.602-0.786,14.73-1.086c0.145-0.008,0.291-0.016,0.436-0.024
	c0.148,0.587,0.682,1.022,1.314,1.022c0.086,0,0.168-0.009,0.25-0.024c0.818,7.768,1.326,15.133,1.502,22.54
	c0.016,0.665,0.027,1.331,0.039,1.997C315.719,158.619,312.408,154.662,309.129,150.579z M288.188,109.994
	c-6.926,1.097-13.568,2.422-20.178,3.917c0.141-7.053,0.246-14.523,0.31-22.606c6.255,6.084,12.934,12.072,20.187,17.867
	C288.316,109.396,288.2,109.681,288.188,109.994z M242.666,126.543c-2.643,1.981-5.336,3.936-8.088,5.859
	c-5.136,3.592-10.476,7.076-16.057,10.423c-0.237-0.395-0.669-0.66-1.164-0.66c-0.141,0-0.277,0.021-0.404,0.062
	c-1.743-5.59-3.369-11.221-4.829-17.041c8.375-5.632,16.089-11.664,23.249-18.01c2.268-2.012,4.482-4.055,6.645-6.127
	C242.097,110.196,242.323,118.58,242.666,126.543z M216.854,142.262c-0.501,0.2-0.854,0.688-0.854,1.261
	c0,0.339,0.125,0.648,0.33,0.887c-5.059,4.461-10.277,8.723-15.646,12.797c-0.143-0.151-0.32-0.27-0.52-0.343
	c3.539-9.944,7.586-20.101,11.889-31.518C213.506,131.122,215.123,136.712,216.854,142.262z M200.057,156.83
	c-0.115-0.032-0.236-0.05-0.361-0.05c-0.163,0-0.318,0.031-0.463,0.083c-0.881-1.955-1.748-3.894-2.596-5.819
	c-0.924-2.1-1.827-4.185-2.707-6.267c0.432-0.228,0.725-0.681,0.725-1.202c0-0.411-0.182-0.778-0.471-1.027
	c6.127-5.32,12.06-11.018,17.748-17.164C207.634,136.773,203.592,146.908,200.057,156.83z M212.439,195.27
	c-5.584-8.982-11.381-17.092-17.249-24.596c0.095-0.073,0.177-0.16,0.249-0.254c6.684,4.992,13.033,10.309,19.037,15.96
	C213.757,189.283,213.076,192.241,212.439,195.27z M214.565,186.467c5.952,5.987,11.577,12.346,16.858,19.094
	c1.543,1.97,3.057,3.974,4.54,6.011c-7.166-5.521-14.909-10.953-23.438-16.188C213.162,192.345,213.844,189.38,214.565,186.467z
	 M213.188,195.898c6.773,4.19,13.05,8.503,18.936,12.885c1.357,1.012,2.695,2.027,4.015,3.046c-0.207,0.742-0.411,1.491-0.614,2.243
	c-0.084-0.017-0.172-0.026-0.262-0.026c-0.381,0-0.724,0.157-0.971,0.409C227.82,207.999,220.818,201.791,213.188,195.898z
	 M236.502,215.957c0.076-0.169,0.118-0.355,0.118-0.552c0-0.628-0.427-1.155-1.007-1.311c0.201-0.741,0.402-1.477,0.605-2.208
	c5.619,3.516,10.906,7.015,15.981,10.448c0.638,0.432,1.269,0.861,1.9,1.291c-0.024,0.042-0.047,0.086-0.065,0.132
	C248.43,221.311,242.65,218.696,236.502,215.957z M270.998,221.285c-4.895,1.075-9.645,2.013-14.375,2.8
	c-0.006-0.031-0.012-0.062-0.018-0.092c7.504-2.5,15.148-5.338,23.404-8.39c0-0.001,0,0,0.001-0.001c0.001,0,0,0.001,0,0
	c2.481-0.881,5.019-1.783,7.622-2.702C281.768,215.743,276.267,218.554,270.998,221.285z M288.463,212.498
	c-2.801,0.985-5.523,1.951-8.183,2.895c5.896-4.638,12.183-9.181,18.972-13.561c2.088-1.347,4.225-2.678,6.41-3.992
	c0.01,0.013,0.02,0.027,0.029,0.04C299.573,202.52,293.842,207.403,288.463,212.498z M307.552,195.939
	c-0.224-0.161-0.496-0.257-0.792-0.257c-0.248,0-0.479,0.066-0.678,0.182c-0.977-1.696-1.961-3.384-2.956-5.061
	c5.942-4.56,12.226-8.88,18.886-12.934C317.078,183.468,312.238,189.457,307.552,195.939z M304.729,189.474
	c-0.514,0.385-1.023,0.772-1.531,1.161c5.318-10.179,10.689-19.271,15.877-27.854c0.963,4.021,1.838,8.037,2.609,12.113
	c0.174,0.918,0.342,1.84,0.506,2.765C316.061,181.378,310.248,185.324,304.729,189.474z M322.273,177.465
	c-0.887-5.006-1.932-9.9-3.111-14.807c3.008-1.269,6.096-2.501,9.262-3.696c0.189,0.242,0.461,0.418,0.771,0.487
	C327.078,165.243,324.756,171.172,322.273,177.465z M329.221,156.792c-0.143,0.029-0.279,0.082-0.402,0.153
	c-1.281-2.243-2.58-4.513-3.895-6.823c-2.271-3.988-4.586-8.094-6.926-12.372c0.199-0.132,0.359-0.315,0.467-0.53
	c1.193,0.407,2.398,0.813,3.619,1.216c1.02,0.336,2.047,0.671,3.084,1.003C326.717,145.438,328.078,151.151,329.221,156.792z
	 M325.094,139.329c-1.848-0.594-3.66-1.192-5.445-1.794c-0.385-0.129-0.766-0.26-1.146-0.391c0.068-0.162,0.105-0.34,0.105-0.527
	c0-0.75-0.609-1.358-1.359-1.358c-0.078,0-0.154,0.008-0.229,0.021c-0.443-1.451-0.895-2.919-1.35-4.409
	c-0.891-2.896-1.809-5.869-2.748-8.938C316.918,128.125,320.994,133.889,325.094,139.329z M312.723,121.627
	c1.457,4.769,2.857,9.301,4.191,13.674c-0.1,0.025-0.193,0.061-0.281,0.106c-3.566-5.897-7.137-12.143-10.654-18.87
	c-0.278-0.532-0.556-1.068-0.834-1.607c0.125-0.064,0.24-0.146,0.339-0.245C307.838,117.056,310.25,119.372,312.723,121.627z
	 M303.52,112.812c-0.095,0.105-0.174,0.225-0.234,0.356c-2.869-0.702-5.659-1.385-8.375-2.046c-1.355-0.33-2.691-0.654-4.014-0.972
	c0.003-0.034,0.006-0.068,0.006-0.103c0-0.75-0.608-1.359-1.359-1.359c-0.112,0-0.223,0.015-0.327,0.042
	c-0.952-4.076-1.914-8.311-2.876-12.738C291.676,101.841,297.393,107.456,303.52,112.812z M288.941,107.948
	c0.063,0.27,0.125,0.537,0.188,0.806c-0.215,0.068-0.406,0.19-0.561,0.349c-7.225-5.776-13.881-11.742-20.113-17.806
	c5.706,1.337,11.563,2.874,17.773,4.589C287.136,100.069,288.042,104.08,288.941,107.948z M285.563,95.588
	c-0.045-0.012-0.088-0.024-0.133-0.036c-5.97-1.644-11.616-3.12-17.125-4.41c-0.304-0.832-0.604-1.673-0.904-2.518
	c0.322-0.137,0.58-0.395,0.719-0.718C273.674,90.32,279.426,92.893,285.563,95.588z M265.516,87.495
	c0.062,0.694,0.643,1.239,1.354,1.239c0.158,0,0.311-0.029,0.452-0.079c0.072,0.204,0.144,0.411,0.218,0.615
	c0.223,0.624,0.446,1.244,0.671,1.861c-7.537-0.691-14.89-1.004-22.536-0.94c0-0.029-0.002-0.059-0.004-0.088
	C252.471,88.952,258.979,88.072,265.516,87.495z M243.395,91.191c0.188,0.172,0.422,0.292,0.682,0.339
	c-0.68,3.22-1.363,6.341-2.051,9.373c-8.242,3.771-17.072,7.667-26.926,11.533C225.597,105.729,234.914,98.575,243.395,91.191z
	 M214.722,112.683c9.923-3.877,18.807-7.787,27.095-11.573c-8.923,8.543-18.735,16.593-29.679,23.959
	C212.945,121.095,213.809,116.981,214.722,112.683z M214.572,112.916c-0.49,2.301-0.965,4.55-1.424,6.752
	c-0.39,1.862-0.768,3.689-1.133,5.49c-5.737,6.209-11.725,11.961-17.908,17.328c-0.034-0.025-0.069-0.049-0.105-0.07
	C200.936,133.589,207.883,123.943,214.572,112.916z"/>
<path opacity="0.4" fill="#FFFFFF" d="M12.619,83.681c0.104,0,0.202-0.02,0.295-0.051l10.934,32.603
	c-0.294,0.157-0.497,0.463-0.497,0.82c0,0.515,0.418,0.933,0.933,0.933c0.188,0,0.362-0.056,0.508-0.152l21.309,20.137
	c-0.086,0.141-0.138,0.305-0.138,0.481c0,0.515,0.417,0.933,0.933,0.933c0.267,0,0.504-0.113,0.674-0.292l27.09,7.991
	c-0.018,0.101-0.029,0.204-0.029,0.31c0,1.03,0.835,1.865,1.865,1.865c1.03,0,1.866-0.834,1.866-1.865
	c0-0.027-0.003-0.054-0.005-0.081l24.22-3.754c0.134,0.349,0.472,0.599,0.869,0.599c0.515,0,0.932-0.417,0.932-0.932
	c0-0.086-0.015-0.168-0.037-0.248l19.539-11.333c0.142,0.334,0.474,0.568,0.859,0.568c0.514,0,0.932-0.417,0.932-0.933
	c0-0.337-0.18-0.629-0.449-0.793l11.255-14.469c0.003-0.006,0.007-0.012,0.011-0.017l8.519-17.236
	c0.105,0.043,0.223,0.068,0.344,0.068c0.516,0,0.932-0.417,0.932-0.933c0-0.417-0.275-0.768-0.655-0.885l2.55-19.818
	c0.451-0.064,0.8-0.449,0.8-0.919c0-0.514-0.416-0.932-0.931-0.932c-0.012,0-0.022,0.003-0.034,0.003l-5.217-20.587
	c0.404-0.103,0.704-0.465,0.704-0.901c0-0.515-0.417-0.933-0.932-0.933c-0.182,0-0.349,0.053-0.49,0.143l-11.59-18.072
	c0.17-0.169,0.276-0.403,0.276-0.661c0-0.516-0.418-0.933-0.933-0.933c-0.206,0-0.395,0.069-0.55,0.184l-17.357-13.012
	c0.036-0.099,0.058-0.203,0.058-0.313c0-0.516-0.417-0.933-0.932-0.933c-0.346,0-0.646,0.191-0.806,0.472l-17.321-5.484
	c0.002-0.029,0.008-0.057,0.008-0.086c0-0.516-0.417-0.933-0.933-0.933c-0.373,0-0.692,0.221-0.841,0.537h-9.505
	c-0.104-0.403-0.466-0.701-0.9-0.701c-0.48,0-0.871,0.363-0.922,0.83l-19.983,2.053c-0.15-0.312-0.467-0.529-0.837-0.529
	c-0.515,0-0.933,0.417-0.933,0.933c0,0,0,0.001,0,0.002L39.309,27.484c-0.163-0.271-0.457-0.456-0.797-0.456
	c-0.515,0-0.933,0.418-0.933,0.933c0,0.285,0.13,0.537,0.332,0.708l-16.6,19.563c-0.109-0.044-0.228-0.07-0.353-0.07
	c-0.514,0-0.932,0.418-0.932,0.933c0,0.369,0.216,0.685,0.527,0.836L12.824,81.84c-0.066-0.016-0.134-0.024-0.205-0.024
	c-0.515,0-0.933,0.417-0.933,0.933C11.686,83.264,12.104,83.681,12.619,83.681z M80.153,14.774c0.163,0.136,0.37,0.223,0.599,0.223
	c0.448,0,0.821-0.316,0.912-0.737l22.576,8.716c-0.024,0.036-0.045,0.074-0.065,0.113H70.947c0-0.008,0.001-0.015,0.001-0.022
	c0-0.358-0.104-0.692-0.279-0.976l2.371-1.83L80.153,14.774z M129.032,33.863c-0.082,0.139-0.133,0.298-0.133,0.472
	c0,0.367,0.213,0.68,0.522,0.832l-1.774,7.071c-0.092-0.014-0.185-0.024-0.281-0.024c-0.434,0-0.833,0.15-1.15,0.4l-20.337-18.802
	c0.016-0.046,0.03-0.092,0.038-0.14L129.032,33.863z M142.279,54.74l-1.732,17.38l-0.18,1.785c-0.021-0.001-0.043-0.007-0.067-0.007
	c-0.029,0-0.059,0.007-0.088,0.01l-11.941-28.196c0.299-0.166,0.545-0.411,0.715-0.707l1.049,0.698l11.685,7.774
	c-0.052,0.117-0.084,0.245-0.084,0.381C141.635,54.271,141.906,54.618,142.279,54.74z M147.115,76.26
	c0,0.005-0.001,0.01-0.001,0.014c0,0.456,0.326,0.833,0.756,0.915l-7.17,26.902c-0.014-0.001-0.027-0.005-0.044-0.005
	c-0.056,0-0.107,0.007-0.161,0.017V75.741c0.402-0.086,0.704-0.431,0.73-0.852L147.115,76.26z M139.725,105.02
	c0,0.252,0.103,0.482,0.267,0.65l-11.167,4.534l-0.449,0.182c-0.338-0.636-0.885-1.142-1.549-1.429l3.229-8.109l9.999-25.121
	c0.079,0.022,0.16,0.037,0.246,0.037v28.395C139.962,104.298,139.725,104.631,139.725,105.02z M76.497,145.526
	c-0.332,0-0.641,0.087-0.911,0.239l-3.482-6.206c0.17-0.136,0.292-0.326,0.335-0.547l4.547,0.174l24.637,0.945l-23.335,6.743
	C78.063,146.096,77.348,145.526,76.497,145.526z M24.284,116.119c-0.018,0-0.034,0.005-0.052,0.006L21.54,96.411
	c0.461-0.095,0.883-0.292,1.248-0.562l3.07,5.08l14.489,23.977c-0.093,0.056-0.174,0.128-0.243,0.211l-1.348-0.683l-13.668-6.919
	c0.079-0.138,0.127-0.293,0.127-0.463C25.216,116.538,24.799,116.119,24.284,116.119z M25.799,58.511
	c0.58-0.004,1.096-0.273,1.436-0.691l4.882,4.069l11.334,9.445c-0.173,0.284-0.275,0.615-0.275,0.972
	c0,0.847,0.565,1.562,1.339,1.789l-4.601,27.608c-0.343,0.017-0.634,0.216-0.782,0.504L23.978,94.09
	c0.067-0.258,0.106-0.525,0.106-0.803c0-1.605-1.186-2.929-2.729-3.152L25.799,58.511z M105,24.446c0.336,0,0.628-0.18,0.792-0.447
	l20.275,18.744c-0.172,0.167-0.312,0.367-0.409,0.59l-9.912-2.146l-17.381-3.762c0.05-0.223,0.079-0.455,0.079-0.692
	c0-1-0.46-1.89-1.18-2.475l6.28-8.784l0.88-1.233C104.583,24.367,104.781,24.446,105,24.446z M127.366,45.944
	c0.258,0,0.504-0.052,0.728-0.147l4.722,11.149l7.199,17c-0.237,0.076-0.431,0.243-0.543,0.462l-20.842-2.025
	c0.002-0.026,0.008-0.052,0.008-0.08c0-0.301-0.146-0.566-0.367-0.736l8.51-25.718C126.965,45.91,127.162,45.944,127.366,45.944z
	 M122.372,111.828l-6.99,0.716l-14.904,1.526c-0.087-0.264-0.285-0.476-0.542-0.578l17.7-40.263
	c0.024,0.001,0.045,0.007,0.069,0.007c0.084,0,0.164-0.014,0.242-0.035l7.061,35.542
	C123.527,109.002,122.397,110.279,122.372,111.828z M71.586,137.908l-3.202-25.245c0.777-0.182,1.367-0.85,1.43-1.667l28.857,3.281
	c-0.002,0.027-0.009,0.053-0.009,0.082c0,0.151,0.04,0.291,0.104,0.418l-26.548,23.439C72.06,138.04,71.838,137.925,71.586,137.908z
	 M40.959,124.784l-0.973-21.224c0.345-0.009,0.64-0.207,0.792-0.494l25.406,7.206c-0.06,0.182-0.094,0.376-0.094,0.579
	c0,0.255,0.052,0.5,0.146,0.721l-21.149,11.642l-3.516,1.935C41.427,124.954,41.209,124.819,40.959,124.784z M40.527,124.823
	l-11.443-18.936l-6.139-10.158c0.449-0.377,0.791-0.876,0.978-1.445l15.139,8.108c-0.021,0.076-0.036,0.156-0.036,0.239
	c0,0.456,0.329,0.834,0.762,0.915l0.974,21.23C40.68,124.782,40.602,124.797,40.527,124.823z M77.695,71.095
	c0.137,1.314,1.072,2.389,2.311,2.736l-11.538,35.228c-0.163-0.047-0.334-0.073-0.512-0.073c-0.265,0-0.517,0.056-0.746,0.156
	L52.028,84.021l-6.092-10.079c0.546-0.3,0.923-0.863,0.963-1.52L77.695,71.095z M56.647,43.758l21.891-3.852l13.624-2.398
	c0.244,0.975,0.933,1.773,1.842,2.161L84.041,63.52l-1.82,4.357c-0.411-0.193-0.869-0.304-1.353-0.304
	c-0.771,0-1.478,0.273-2.029,0.728L56.486,44.355c0.104-0.151,0.167-0.333,0.167-0.531C56.654,43.802,56.649,43.781,56.647,43.758z
	 M126.598,45.777L118.1,71.461c-0.12-0.056-0.252-0.09-0.394-0.09c-0.113,0-0.221,0.023-0.321,0.062l-14.256-22.42l-6.117-9.619
	c0.625-0.414,1.093-1.041,1.305-1.777l27.272,5.902c-0.056,0.177-0.086,0.365-0.086,0.561
	C125.502,44.835,125.952,45.484,126.598,45.777z M84.051,70.879c0.001-0.039,0.006-0.078,0.006-0.116
	c0-1.208-0.671-2.257-1.66-2.798l11.791-28.228c0.333,0.119,0.69,0.187,1.064,0.187c0.581,0,1.123-0.157,1.591-0.428l20.363,32.023
	c-0.249,0.16-0.416,0.432-0.429,0.746L84.051,70.879z M98.708,114.083l-9.942-1.13l-18.948-2.154
	c-0.021-0.761-0.496-1.407-1.165-1.677l11.542-35.242c0.218,0.047,0.441,0.073,0.672,0.073c0.466,0,0.906-0.103,1.305-0.281
	l4.017,9.478l12.897,30.429C98.907,113.695,98.773,113.875,98.708,114.083z M45.041,74.17c0.255,0,0.498-0.051,0.719-0.143
	l18.042,29.852l3.234,5.352c-0.343,0.195-0.617,0.495-0.779,0.857l-25.403-7.204c0.022-0.081,0.039-0.165,0.039-0.253
	c0-0.463-0.338-0.844-0.78-0.917l3.548-21.286l1.048-6.288C44.815,74.159,44.927,74.17,45.041,74.17z M99.595,113.426
	c-0.117,0-0.229,0.024-0.332,0.063L82.351,73.585c0.927-0.488,1.585-1.418,1.69-2.511l32.748,1.387
	c0.06,0.35,0.314,0.629,0.649,0.73L99.744,113.44C99.696,113.433,99.646,113.426,99.595,113.426z M104.283,24.103l-7.176,10.039
	c-0.523-0.375-1.162-0.598-1.854-0.598c-1.229,0-2.293,0.696-2.826,1.714L70.732,23.935c0.105-0.198,0.174-0.417,0.202-0.65h33.165
	c-0.018,0.074-0.032,0.149-0.032,0.229C104.067,23.738,104.149,23.941,104.283,24.103z M69.083,24.931
	c0.646,0,1.214-0.329,1.549-0.827l21.709,11.33c-0.177,0.397-0.278,0.835-0.278,1.299c0,0.199,0.021,0.394,0.056,0.584l-3.535,0.621
	l-31.972,5.625c-0.046-0.158-0.129-0.299-0.245-0.411l11.852-18.436C68.477,24.854,68.771,24.931,69.083,24.931z M55.721,44.756
	c0.246,0,0.468-0.097,0.635-0.252L78.392,68.11l0.302,0.323c-0.624,0.582-1.015,1.408-1.015,2.329c0,0.046,0.004,0.09,0.006,0.136
	l-30.783,1.326c-0.032-0.76-0.518-1.401-1.195-1.661l7.433-19.439l2.441-6.383C55.626,44.749,55.673,44.756,55.721,44.756z
	 M41.673,125.316l15.162-8.345l9.488-5.221c0.317,0.575,0.93,0.965,1.633,0.965c0.08,0,0.157-0.006,0.235-0.016l2.054,16.194
	l1.145,9.021c-0.294,0.043-0.541,0.221-0.679,0.472l-5.462-2.357l-23.509-10.144c0.012-0.06,0.018-0.121,0.018-0.184
	C41.757,125.564,41.726,125.435,41.673,125.316z M72.915,138.833l-0.46-0.017c-0.003-0.16-0.049-0.309-0.123-0.439l26.543-23.434
	c0.15,0.186,0.37,0.311,0.622,0.338l2.534,23.773c-0.246,0.167-0.407,0.45-0.407,0.77c0,0.039,0.006,0.075,0.012,0.112
	L72.915,138.833z M102.555,138.891c-0.12,0-0.233,0.024-0.338,0.065l-0.872-8.177l-1.651-15.498c0.467-0.05,0.833-0.441,0.833-0.922
	c0-0.033-0.006-0.064-0.01-0.096l21.858-2.238c0.04,0.863,0.418,1.636,1.01,2.188l-16.564,20.12l-3.841,4.666
	C102.852,138.932,102.709,138.891,102.555,138.891z M118.132,73.129c0.221-0.115,0.386-0.312,0.46-0.552l15.946,1.55l4.861,0.472
	c-0.021,0.075-0.034,0.152-0.034,0.232c0,0.359,0.206,0.668,0.505,0.824l-13.229,33.231c-0.338-0.123-0.703-0.193-1.084-0.193
	c-0.121,0-0.24,0.008-0.357,0.021L118.132,73.129z M68.05,24.619L56.212,43.034c-0.143-0.089-0.31-0.143-0.491-0.143
	c-0.177,0-0.34,0.052-0.48,0.138L42.805,29.84c0.036-0.099,0.059-0.205,0.059-0.316c0-0.189-0.057-0.364-0.153-0.512L67.32,23.67
	C67.454,24.062,67.713,24.394,68.05,24.619z M41.374,30.267c0.156,0.118,0.348,0.19,0.557,0.19c0.329,0,0.617-0.171,0.783-0.428
	l12.369,13.119c-0.18,0.169-0.294,0.41-0.294,0.677c0,0.397,0.25,0.735,0.601,0.869l-4.143,10.833L45.52,70.504
	c-0.152-0.04-0.313-0.064-0.479-0.064c-0.602,0-1.137,0.287-1.477,0.73l-8.642-7.201l-7.573-6.311
	c0.19-0.292,0.301-0.64,0.301-1.013c0-0.6-0.284-1.132-0.725-1.473L41.374,30.267z M25.603,58.502L23,77.025l-1.839,13.085
	c-0.088-0.008-0.176-0.014-0.267-0.014c-0.568,0-1.1,0.15-1.563,0.41l-3.539-4.246l-2.447-2.937c0.126-0.16,0.206-0.357,0.206-0.576
	c0-0.303-0.146-0.569-0.37-0.74l11.992-23.603C25.311,58.454,25.454,58.487,25.603,58.502z M13.094,83.548
	c0.04-0.024,0.078-0.052,0.114-0.082l2.721,3.265l3.234,3.879c-0.877,0.569-1.458,1.554-1.458,2.677
	c0,1.761,1.428,3.189,3.189,3.189c0.154,0,0.303-0.015,0.452-0.035L24.016,116l0.022,0.157c-0.003,0-0.005,0.001-0.008,0.002
	L13.094,83.548z M24.946,117.708c0.01-0.01,0.018-0.022,0.027-0.033l8.569,4.339l6.455,3.269c-0.064,0.126-0.104,0.268-0.104,0.419
	c0,0.515,0.417,0.933,0.932,0.933c0.144,0,0.278-0.035,0.4-0.093l1.919,4.027l3.352,7.042c-0.104,0.05-0.198,0.117-0.276,0.2
	L24.946,117.708z M46.896,137.518c-0.074,0-0.145,0.011-0.213,0.027l-5.29-11.107c0.124-0.095,0.224-0.219,0.288-0.364
	l28.954,12.494c-0.021,0.07-0.034,0.142-0.038,0.217H47.764c0.041-0.104,0.065-0.216,0.065-0.334
	C47.829,137.935,47.411,137.518,46.896,137.518z M47.891,138.98h22.715c0.07,0.445,0.453,0.786,0.917,0.786
	c0.15,0,0.29-0.038,0.415-0.1l3.48,6.205c-0.344,0.245-0.6,0.602-0.716,1.018L47.891,138.98z M78.339,147.114
	c-0.002-0.016-0.004-0.033-0.007-0.049l23.424-6.768c0.14,0.235,0.377,0.401,0.658,0.445l0.572,1.371l0.103,0.248
	c-0.337,0.141-0.574,0.472-0.574,0.861c0,0.049,0.007,0.096,0.014,0.142L78.339,147.114z M104.268,142.79
	c-0.156-0.296-0.463-0.5-0.821-0.5c-0.059,0-0.114,0.007-0.169,0.017l-0.264-0.633l-0.385-0.925c0.48-0.039,0.858-0.435,0.858-0.925
	c0-0.053-0.007-0.105-0.016-0.155l14.093-5.64l5.836-2.335L104.268,142.79z M114.672,134.975l-11.252,4.502
	c-0.058-0.147-0.155-0.272-0.275-0.371l6.369-7.736l14.018-17.026c0.51,0.419,1.153,0.682,1.856,0.718l-0.064,1.177l-0.761,14.123
	c-0.43,0.083-0.755,0.46-0.755,0.914c0,0.014,0.003,0.027,0.004,0.04L114.672,134.975z M124.759,130.346l0.824-15.276
	c1.751-0.014,3.166-1.436,3.166-3.188c0-0.471-0.105-0.916-0.289-1.319l11.696-4.748l-15.2,24.558
	C124.892,130.357,124.827,130.348,124.759,130.346z M136.317,115.9l-10.646,13.688l12.576-20.318l2.092-3.377
	c0.1,0.036,0.207,0.058,0.317,0.058c0.516,0,0.935-0.417,0.935-0.932c0-0.261-0.108-0.496-0.28-0.665l3.229-5.091L136.317,115.9z
	 M145.435,96.972c-0.027-0.002-0.054-0.008-0.083-0.008c-0.515,0-0.934,0.417-0.934,0.932c0,0.278,0.124,0.524,0.317,0.695
	l-0.645,1.015l-2.936,4.627c-0.079-0.05-0.167-0.086-0.259-0.112l6.997-26.26L145.435,96.972z M147.817,75.374
	c-0.337,0.085-0.599,0.352-0.678,0.69l-5.142-1.195l-0.78-0.182c-0.057-0.358-0.315-0.646-0.655-0.747l1.633-16.382l0.277-2.777
	c0.032,0.002,0.063,0.009,0.096,0.009c0.011,0,0.021-0.002,0.032-0.003L147.817,75.374z M141.922,53.187
	c-0.039,0.037-0.072,0.077-0.104,0.119l-2.601-1.73l-10.144-6.749c0.102-0.229,0.158-0.48,0.158-0.747
	c0-0.867-0.592-1.593-1.392-1.803l1.765-7.041c0.074,0.019,0.148,0.03,0.227,0.03c0.187,0,0.357-0.055,0.502-0.148L141.922,53.187z
	 M129.048,33.655l-19.661-8.667l-3.46-1.525c-0.01-0.185-0.072-0.354-0.173-0.495l4.559-2.144c0.171,0.222,0.436,0.367,0.738,0.367
	c0.333,0,0.623-0.175,0.788-0.438L129.048,33.655z M110.166,19.979c-0.029,0.089-0.047,0.182-0.047,0.281
	c0,0.142,0.034,0.274,0.091,0.395l-4.21,1.98l-0.385,0.182c-0.165-0.146-0.377-0.237-0.614-0.237c-0.173,0-0.331,0.05-0.469,0.13
	l-7.223-4.889l-4.537-3.071c0.05-0.074,0.085-0.157,0.112-0.243L110.166,19.979z M91.089,14.029c-0.014,0.064-0.021,0.131-0.021,0.2
	c0,0.515,0.417,0.932,0.932,0.932c0.251,0,0.476-0.1,0.645-0.26l11.645,7.883l-22.604-8.727c0-0.01-0.003-0.019-0.003-0.028H91.089z
	 M79.829,14.159c0.018,0.177,0.084,0.338,0.188,0.472l-9.459,7.297c-0.341-0.442-0.874-0.728-1.475-0.728
	c-0.651,0-1.222,0.334-1.556,0.838l-7.74-5.108c0.097-0.148,0.155-0.324,0.155-0.513c0-0.073-0.01-0.145-0.027-0.213L79.829,14.159z
	 M59.009,17.351c0.254,0,0.484-0.103,0.652-0.267l2.156,1.422l5.61,3.704c-0.133,0.256-0.21,0.548-0.21,0.857
	c0,0.143,0.018,0.282,0.048,0.415l-24.701,5.361c-0.023-0.021-0.048-0.041-0.073-0.06L58.128,16.71
	C58.251,17.081,58.597,17.351,59.009,17.351z M57.267,17.126l-1.394,1.077L42.312,28.674c-0.116-0.052-0.245-0.082-0.381-0.082
	c-0.215,0-0.411,0.075-0.568,0.198l-1.887-0.59l-0.062-0.02c0.017-0.071,0.03-0.143,0.03-0.219c0-0.104-0.021-0.204-0.053-0.297
	L57.267,17.126z M38.074,28.78c0.131,0.071,0.278,0.115,0.438,0.115c0.369,0,0.685-0.217,0.836-0.529l0.497,0.155l1.361,0.425
	C41.078,29.106,41,29.305,41,29.524c0,0.095,0.019,0.184,0.044,0.271l-7.592,7.137L22.116,47.588L38.074,28.78z M41.126,29.987
	c0.03,0.05,0.063,0.098,0.101,0.142L26.763,55.061c-0.285-0.176-0.619-0.279-0.978-0.279c-0.283,0-0.55,0.065-0.79,0.178
	l-3.376-5.206c0.167-0.169,0.271-0.401,0.271-0.658c0-0.287-0.132-0.54-0.334-0.711L41.126,29.987z M20.739,50
	c0.07,0.017,0.143,0.027,0.219,0.027c0.187,0,0.36-0.056,0.507-0.151l3.357,5.176c-0.54,0.327-0.901,0.917-0.901,1.594
	c0,0.746,0.438,1.388,1.071,1.686l-9.466,18.631l-2.512,4.943c-0.001-0.001-0.001-0.001-0.003-0.002L20.739,50z"/>
</svg>
